<svg xmlns="http://www.w3.org/2000/svg" viewBox="0 0 300 300"><title>Philadelphia Phillies cap on dark logo</title><path fill="#fff" d="M200.78 45.66c21.88 10.06 33.73 27.35 33.73 48.97 0 1.27-.04 2.56-.12 3.86-2.49 40.58-33.8 55.44-68.64 68.1v69.8c0 9.76-4.4 18.84-12.41 25.58-8.34 7.03-19.58 10.35-29.32 8.66-7.27-1.28-12.39-5.35-14.4-11.46-.67-2.04-1-4.23-1-6.55 0-10.12 6.31-22.6 17.78-34.79V79.15c-10.66 5.04-18.51 15.06-18.51 21.35 0 .47.05.92.14 1.35.75 3.55 4.71 4.21 7.9 4.14l1.34-.03-.22 1.32c-.13.82-3.42 20.15-16.42 27.15-6.41 3.46-14.05 3.26-22.68-.6-7.33-3.29-12.25-10.07-13.87-19.08-2.92-16.34 5.33-35.9 22.07-52.33 26.25-25.58 78.73-33.25 114.62-16.76Zm-29.03 85.27c18.77-3.51 30.32-15.51 30.32-31.03 0-1.12-.05-2.27-.18-3.44-2.04-17.56-12.54-25.82-31.2-24.57 0 0-2.67.18-3.98.27v59.72l5.05-.94Zm-3.19 126.72h6.13V259h-2.29v6.24h-1.55V259h-2.29Zm13.86 0h2.67v7.6h-1.55v-6.06h-.04l-2.2 6.06h-1.5l-2.12-6.06h-.04v6.06h-1.56v-7.6h2.69l1.77 4.96h.05Z"/></svg>