<svg xmlns="http://www.w3.org/2000/svg" viewBox="0 0 300 300"><title>St Louis Cardinals cap on dark logo</title><path fill="#fff" d="M238.57 253.48v5.02h-1.17v-5.02h-1.82v-.95h4.81v.95Zm7.96-.94h1.67v5.97h-1.08v-4.65h-.03l-1.78 4.65h-.81l-1.78-4.65h-.03v4.65h-1.09v-5.97h1.68l1.64 4.23Zm-151.48 7.08c-3.98 0-7.22-3.24-7.22-7.22v-14.48c0-3.3 2.36-6.08 5.48-6.47.82-.1 1.71-.15 2.65-.15 4.02 0 4.45-1.49 4.45-2.8v-18c-4.37-1.91-7.82-3.53-10.1-4.64-1.36-.66-2.54-1.25-3.59-1.78-4.25-2.14-5.57-2.81-8.9-2.99-1.73.02-3.81.13-6.72.36q-.345.03-.69.03c-2.24 0-4.32-.88-5.73-2.4-1.2-1.3-1.83-2.95-1.79-4.68-.03-1.75.62-3.44 1.86-4.83 2.08-2.32 3.91-4.32 5.55-6.11 1.81-2.05 3.43-3.86 4.86-5.46l1.97-2.21a7.13 7.13 0 0 1 5.34-2.39h.29c1.31 0 2.6.36 3.71 1.04 1.51.91 3.2 1.87 5.29 3.02 2.72 1.41 5.61 2.81 8.63 4.17v-22.54c-21.95-4.82-37.51-23.64-37.51-46.08s15.88-42.19 37.51-47.23v-3.99c0-1.9-1.55-3.45-3.45-3.45h-1.91c-3.98 0-7.22-3.24-7.22-7.22v-8.8c0-3.98 3.24-7.22 7.22-7.22h39.15c3.98 0 7.22 3.24 7.22 7.22v8.8c0 3.98-3.24 7.22-7.22 7.22h-1.95c-1.88 0-3.41 1.53-3.41 3.41v2.6c27.34.17 53.27 5.95 63.25 8.46 1.47.37 2.74.71 3.88 1.01 3.19.85 4.94 1.32 6.83 1.32s4.53-.49 9.19-1.74c.74-.2 1.5-.3 2.24-.3 2.7 0 5.07 1.31 6.33 3.5 1.22 2.12 1.18 4.71-.12 6.94-3.43 5.91-6 10.17-8.07 13.59l-1.57 2.61a7.2 7.2 0 0 1-6.14 3.47c-.81 0-1.61-.14-2.37-.4-23.39-8.19-52.9-11.26-73.45-11.43v40.89h26.37v-4.28c-5.36.4-8.35 1.6-8.38 1.61l-.21.09-.26.08c-.78.24-1.55.36-2.3.36-1.74 0-3.36-.67-4.56-1.87-2.13-2.15-2.11-5.07-2.1-6.47l-.06-10.84.02-.23c.29-3.39 3.03-5.95 6.38-5.95l49.76.03c3.33 0 6.19 2.67 6.38 5.96l.2 11.06c.04 1.41.12 4.34-1.99 6.51-1.18 1.21-2.77 1.87-4.5 1.87q-1.275 0-2.61-.48c-.63-.19-4.18-1.2-8.71-1.65v4.39c33.08 2.31 53.35 23.78 53.35 43.38 0 30.07-25.71 48.75-67.1 48.75-4.98 0-10.14-.28-15.34-.83-8.05-.86-15.61-2.19-24.35-4.35 0 0-.02 9.12 0 9.12 0 2.62 1.29 2.62 4.05 2.7h71.03c2.22 0 9.99-.55 17.08-7.64a7.2 7.2 0 0 1 5.13-2.13c1.94 0 3.93.84 5.29 2.32l10.06 10.9c2.63 2.85 2.54 7.25-.22 10.02-10.03 10.07-22.24 14.96-37.33 14.96H95.04Zm33.78-67.82c13.67 3.63 27.16 5.54 39.21 5.54 24.47 0 40.28-7.81 40.28-19.91s-15.16-16.61-26.05-17.66v9.04l2.1 4.72c.9 2.01.73 4.31-.47 6.15a6.42 6.42 0 0 1-5.42 2.95h-19.26c-2.15 0-4.15-1.07-5.35-2.85a6.44 6.44 0 0 1-.63-6.03l1.94-4.78v-9.45h-26.36v32.28ZM100.41 94c-6.58 3.66-10.83 10.43-10.83 17.96 0 8.75 4.19 15.82 10.83 18.99Z"/><path fill="#be0a14" d="m237.75 238.07-10.05-10.89c-.84-.91-2.25-.92-3.12-.04-7.03 7.04-15.22 9.13-20.66 9.13h-71.03c-4.78 0-9.11-.37-9.11-5.4v-17.95s.03-.06.07-.05c10.75 2.91 19.69 4.75 29.87 5.83 39.97 4.25 76.85-8.1 76.85-42.89 0-18.49-21.35-37.94-52.73-38.51-.34 0-.62-.28-.62-.62v-13.26c0-.35.28-.63.63-.63 7.91-.06 14.77 2.12 14.77 2.12 2.78 1.09 2.4-2.23 2.4-3.33l-.18-10.54c-.04-.71-.78-1.2-1.34-1.2l-49.75-.03c-.56 0-1.26.39-1.34 1.32l.06 10.45c0 1.25-.18 4.13 2.4 3.33 0 0 5.31-2.29 14.78-2.12.34 0 .63.29.63.63v13.25c0 .35-.28.63-.63.63h-35.22c-.35 0-.63-.28-.63-.63V86.94c0-.34.27-.63.61-.63 18.62-.26 52.64 2.28 79.56 11.71.95.33 1.99-.04 2.5-.9 2.3-3.84 5.27-8.67 9.6-16.14 1.03-1.77-.58-3.3-2.77-2.71-11.72 3.15-12.11 2.02-22.44-.57-11.78-2.96-39.12-8.76-66.43-8.29-.35 0-.64-.28-.64-.63v-7.05c0-4.68 3.79-8.47 8.47-8.47h1.95c1.19 0 2.16-.97 2.16-2.16v-8.8c0-1.19-.97-2.16-2.16-2.16H95.06c-1.19 0-2.16.97-2.16 2.16v8.8c0 1.19.97 2.16 2.16 2.16h1.91c4.7 0 8.51 3.81 8.51 8.51v7.65c0 .31-.23.57-.53.62-20.9 3.13-36.98 21.19-36.98 42.95s16.08 38.81 36.97 41.76c.31.04.54.3.54.62v33.91c-5.51-2.24-10.94-4.71-16.12-7.4-1.86-1.02-3.71-2.06-5.49-3.13-.38-.23-.8-.32-1.21-.3-.64-.05-1.28.18-1.73.69-1.88 2.11-4.09 4.57-6.88 7.73-1.63 1.78-3.45 3.77-5.51 6.07-.43.48-.6.99-.56 1.45-.1 1.15 1.06 2.14 2.75 2.01 2.87-.22 5.19-.35 7.21-.37 5.55.27 7.45 1.81 14.6 5.29 3.18 1.55 7.61 3.6 12.95 5.86v23.45c0 6.73-8.33 5.46-11.54 5.86-.65.08-1.04.79-1.04 1.45v14.48c0 1.19.97 2.16 2.16 2.16h108.86c13.8 0 24.83-4.52 33.75-13.47.83-.83.88-2.16.08-3.02Zm-113.97-82.98c0-.35.28-.63.63-.63h35.22c.35 0 .63.28.63.63v13.82c0 .67-.13 1.34-.38 1.96l-1.94 4.78c-.37.92.3 1.92 1.29 1.92h19.26c1.01 0 1.69-1.04 1.27-1.97l-2.09-4.65c-.3-.67-.46-1.4-.46-2.14V155.1c0-.35.28-.64.63-.63 12.75.15 35.53 5.03 35.53 22.97 0 23.77-41.09 32.12-89.51 18.25a.14.14 0 0 1-.1-.13V155.1Zm-19.04-17.59c-12.46-1.92-20.21-12.64-20.21-25.54 0-12.03 8.59-22.15 20.16-25.03.4-.1.78.21.78.62v49.32c0 .39-.35.69-.73.63"/></svg>