<svg xmlns="http://www.w3.org/2000/svg" viewBox="0 0 300 300"><title>Tampa Bay Rays cap on dark logo</title><path fill="#fff" d="M69.73 187.42c1.66-.25 23.01-4.21 23.01-4.21V57.08h-34.8l-.16.06c-12.4 4.9-16.63 21.96-17.47 26.04 0 .03-.02.11-.02.11l-5.4-.3 4.61-38.58 133.09-.06v.02l5.1 43.29-.53.02-1.01.08-3.89.21c-.81-3.9-5.46-25.88-17.94-30.84l-.17-.05h-35.1v126.15s21.74 3.96 23.18 4.21v6.93h-72.5Zm192.71 51.74v5.51h-1.38v-5.51h-2.02v-1.18h5.44v1.18Zm9.87 5.51v-5.33h-.04l-1.96 5.33h-1.32l-1.88-5.33h-.05v5.33h-1.37v-6.69h2.38l1.58 4.36 1.64-4.36h2.36v6.69Zm-141.18 6.29v-6.98c1.41-.22 23.54-4.08 24.15-4.2h.02V109.75s-22.72-3.73-24.16-3.94v-6.99h67.3c.12 0 .23 0 .36.02 32.8.06 49.44 9.85 49.44 33.7 0 29.79-33.1 38.36-33.1 38.36v.03s42.69-1.01 42.69 37.04c0 28.95-18.57 43.01-50.38 43.01h-76.31Zm91.16-111.94c0-34.07-32.7-32.22-32.7-32.22-1.73 0-5.46 0-7.42.19l-.82.12v134.97h15.03c24.53 0 34.81-15.68 35.42-31.5.02-.51.04-1.02.04-1.54 0-29.23-37.65-32.75-40.89-33.02v-4.57s30.25-3.09 31.31-30.96c.02-.48.02-.97.02-1.48Z"/><path fill="#8fbce6" d="M92.74 57.1h-34.8l-.16.06c-12.39 4.9-16.62 21.96-17.46 26.04 0 .03-.02.08-.02.09l-5.4-.28-.56 4.53 9.92.52.4-1.96c.67-3.26 4.59-19.71 15.88-24.36h32.19v-4.65Zm88.6 50.01v134.98h14.28-9.63V111.6c2.05-.05 5.9-.16 5.9-.16.27 0 13.45-.6 22.26 7.75 5.22 4.95 7.93 12.1 8.1 21.29.02-.48.02-.97.02-1.48 0-34.07-32.7-32.22-32.7-32.22-1.73 0-5.45 0-7.42.2l-.82.12Zm9.6 64.58v8.83l2.14.18c3.93.3 38.05 3.78 38.72 29.89.02-.51.04-1.02.04-1.54 0-29.23-37.65-32.75-40.89-33.02v-4.33Zm-44.32 16.12s-19.95-3.62-23.17-4.21V61.73h32.24c10.54 4.36 15.19 23.31 16.36 29.03l.4 1.96 9.92-.52-5.62-47.83h-4.15l5.1 43.3-.53.02-1.02.08-3.89.21c-.81-3.92-5.46-25.88-17.95-30.84l-.16-.05h-35.11v126.15s21.75 3.96 23.19 4.21v6.93h-72.5l-.02 4.68h76.91v-11.24Zm8.68-78.04s-22.72-3.73-24.16-3.94v-6.99h-.02v11.3l24.16 3.96.02-4.32Zm96.81 73.65c-7.52-7.37-17.5-10.37-24.83-11.63 10.32-5.1 25.59-16.14 25.59-36.94 0-24.6-16.57-36.03-52.13-36.03h-1.94c32.8.07 49.44 9.86 49.44 33.71 0 29.78-33.1 38.36-33.1 38.36v.02s42.69-.99 42.69 37.06c0 28.94-18.57 42.99-50.38 42.99h-76.31v-6.59h-.03l.02 1.97v9.29h78.64c33.98 0 52.71-16.09 52.71-45.37 0-11.09-3.48-20.16-10.36-26.85"/></svg>