<svg viewBox="0 0 58.756 72.002" xmlns="http://www.w3.org/2000/svg"><g fill="#231f20"><path d="m30.4 58.293a10.431 10.431 0 0 0 .216-2.166 9.786 9.786 0 0 1 -8.148-7.979c-1.432-7.074 1.242-10.35 2.594-11.5-1.934-1.822-3.853-6.648-2.599-12.848 1.01-5 4.774-6.43 8.169-6.849a27.782 27.782 0 0 1 4.288-.213 19.254 19.254 0 0 1 2.059.076c3.59.2 8.152 1.263 9.432 6.6h6.31c-1.8-4.691 1.022-9.742 1.87-10.367a4.557 4.557 0 0 0 -5.809 1.7 23.628 23.628 0 0 0 -11.361-3.747 27.961 27.961 0 0 0 -6.866.081v.006c-4.808.6-8.786 2.34-11.426 5.054a10.849 10.849 0 0 0 -3.2 8.009c.179 6.336-.785 10.627-2.788 12.487 1.639 1.323 2.788 3.876 2.788 11.16 0 5.233 3.99 12.227 13.053 14.117a11.727 11.727 0 0 0 1.418-3.621z"/><path d="m37.045 10.955.012-1.246c0-4.316 1.117-7.916 2.69-9.248a4.59 4.59 0 0 0 -5.947 1.81 4.589 4.589 0 0 0 -5.956-1.81c1.665 1.352 2.691 4.989 2.691 9.309l.018 1.316a31.111 31.111 0 0 1 6.492-.131z"/><path d="m36.982 56.247c0-2.821.022-9.862.023-10.218.182-4.634 1.142-7.842 2.79-9.365-1.67-1.49-2.544-4.426-2.8-9.35l-.045-8.2.025-2.3a19.254 19.254 0 0 0 -2.059-.076 27.782 27.782 0 0 0 -4.288.213l.03 2.183-.008 8.148c-.184 4.638-1.145 7.848-2.794 9.374 1.207 1.092 2.739 3.617 2.8 9.363v8.871c0 .377-.022.734-.045 1.086v.012a13.748 13.748 0 0 1 -.225 2.3 11.311 11.311 0 0 1 -1.553 3.828c-2.557 3.954-7.1 3.964-8.967 3.964-7.06 0-10.793-3.5-10.793-10.115 0-6.75.876-10.662 2.823-12.461a4.586 4.586 0 0 0 -5.944 1.816 4.587 4.587 0 0 0 -5.952-1.81c1.948 1.8 2.826 5.711 2.826 12.461 0 10.037 6.374 16.029 17.047 16.029 5.43 0 10.155-1.783 13.307-5.02a13.538 13.538 0 0 0 2.97-4.654 27.472 27.472 0 0 0 .84-6.082z"/><path d="m54.628 34.883a4.618 4.618 0 0 0 -5.94 1.807c-1.191-1.908-3.3-2.527-6.356-2.717v5.162c2.652.73 3.224 2.43 3.224 3.761v4.21c0 4.166-1.349 8.242-8.565 9.141a27.472 27.472 0 0 1 -.84 6.082c5.43-.395 10.851-2.148 12.516-3.93a4.577 4.577 0 0 0 5.977 1.841c-1.9-1.845-2.833-6.159-2.833-13.134-.001-6.688.85-10.436 2.817-12.223z"/><path d="m58.102 58.726-.453 1.219h-.01l-.432-1.219h-.66v1.868h.379v-1.487h.01l.523 1.487h.369l.539-1.487h.01v1.487h.379v-1.868z"/><path d="m54.698 59.058h.562v1.536h.383v-1.536h.561v-.332h-1.506z"/></g></svg>