<svg enable-background="new 0 0 108.9 32.2" viewBox="0 0 108.9 32.2" xmlns="http://www.w3.org/2000/svg"><path d="m105.8 8h-.7v1.9h-.5v-1.9h-.6v-.4h1.8zm3.2 1.9h-.5v-1.8l-.7 1.8h-.4l-.6-1.8v1.8h-.5v-2.3h.8l.5 1.5.6-1.5h.8z" fill="#231f20"/><g fill="#919195"><path d="m19.6 7.6c-3.1-4.2-9.7-6.8-11.4-7.4-7.1-.2-9.2 3.8-7.8 4.5.3-.3 4.6-3.8 19.2 2.9z"/><path d="m85.5 7.6c3.1-4.2 9.8-6.8 11.5-7.5 7.1-.1 9.2 3.9 7.8 4.6-.4-.3-4.6-3.8-19.3 2.9z"/><path d="m52.8 17.5s-3.9 13.4-25.1-4.7c2.3 3.1 5 6 7.9 8.6 6.3 5.1 9 6.8 13.6 5.3-.1.2-.2.4-.4.5 0 0 1.8.1 3.6-2.3.9 1.4 2.4 2.3 4 2.4-.2-.2-.4-.4-.5-.7 4.6 1.5 7.3-.2 13.6-5.3 2-1.7 3.9-3.6 5.5-5.7-14 13.5-22.2 1.9-22.2 1.9z"/></g><path d="m7.8 0c4.1.1 8.1 1.4 11.3 3.9 5.9 4.2 10.5 12.6 16.5 17.5 6.3 5.1 9 6.8 13.6 5.3 0 0-1.8 4-9.8.2-2.6 2.6-8 5-9 5.3s-5-.2-5-.2-9.2-4.4-10.7-6.2c-3.8-5-6.7-10.6-8.4-16.5-.4 5.8.6 11.5 3 16.8 0 0-6.4-4.6-6.5-19.5-.5-.9-1.4-1.6-2.4-1.9 0 0 3.9-4.1 19.2 2.9-3.6-4.8-11.8-7.6-11.8-7.6z" fill="#231f20"/><path d="m97.3 0c-4.1.1-8 1.4-11.3 3.9-5.9 4.2-10.4 12.7-16.4 17.5-6.3 5.1-9 6.8-13.6 5.3 0 0 1.8 4 9.8.2 2.6 2.6 8 5 9 5.3s5-.2 5-.2 9.2-4.4 10.7-6.2c3.8-4.9 6.7-10.4 8.4-16.4.4 5.8-.6 11.5-3 16.8 0 0 6.4-4.6 6.5-19.5.5-.9 1.4-1.6 2.4-1.9 0 0-4-4.1-19.3 2.9 3.6-4.9 11.8-7.7 11.8-7.7z" fill="#231f20"/><path d="m23 21.2c1.9 1.5 4.3 1.7 4.6 1.3s-.6-2.4-2.5-3.8c-1.2-1.1-2.8-1.7-4.4-1.9-.3 0 .4 2.9 2.3 4.4z" fill="#e31837"/><path d="m82.2 21.2c-1.9 1.5-4.3 1.7-4.6 1.3s.6-2.4 2.5-3.8c1.2-1.1 2.8-1.7 4.4-1.9.3 0-.5 2.9-2.3 4.4z" fill="#e31837"/><g fill="#fff"><path d="m29.9 20.5c.2-.3-.1-.8-.5-1.2s-.9-.4-1.1 0 .1.8.5 1.2.9.4 1.1 0z"/><path d="m75.3 20.5c-.2-.3.1-.8.5-1.2s.9-.4 1.1 0-.1.8-.5 1.2-1 .4-1.1 0z"/><path d="m31 22.6c-2.4 1.1-5.1 1.2-7.5.1-2.7-1.2-4.4-3.9-4.4-6.8 0-.3 0-.7.1-1-3.7-1.3-6.6-2.3-8.7-2.2 1.5 4.2 3.9 9.1 6 11.4 3.3 3.5 9.8 5.9 11.7 5.9 1.4 0 4.6-1.2 7-2.6l-.2.1c-1.2-1.7-2.5-3.4-4-4.9z"/><path d="m10.5 12.5.1.2z"/></g><path d="m19.2 14.9c.3-1.2 1-2.2 2-2.9-2.8-2.6-9.1-5.3-12.2-5.2.3 2 .8 3.9 1.5 5.8l.1.2c2-.2 4.9.7 8.6 2.1z" fill="#bec0c2"/><path d="m35.4 27.2c.7-.4 1.3-.9 1.9-1.4-2.1-1.2-4-2.8-5.6-4.7 0 .4-.1.9-.4 1.2 0 0-.1.1-.1.1l-.2.2c1.4 1.5 2.7 3.1 3.9 4.9l.2-.1z" fill="#bec0c2"/><path d="m70.1 27.4.1.1z" fill="#fff"/><path d="m94.7 12.7c-2-.1-5 .8-8.7 2.2.1.3.1.7.1 1 0 3-1.7 5.6-4.4 6.8-3 1.4-6.6.6-7.6-.1h.1c-1.4 1.5-2.7 3.1-3.9 4.9 2.3 1.4 5.4 2.6 6.7 2.6 1.9-.1 8.4-2.4 11.7-5.9 2.1-2.4 4.5-7.3 6-11.5z" fill="#fff"/><path d="m94.7 12.7c.7-1.9 1.3-3.9 1.6-5.9-3.1-.1-9.4 2.6-12.2 5.1 1 .7 1.7 1.7 2 2.9 3.6-1.3 6.5-2.2 8.6-2.1z" fill="#bec0c2"/><path d="m74.1 22.6c-.1-.1-.1-.1-.2-.2-.3-.4-.4-.8-.4-1.2-1.6 1.9-3.5 3.4-5.6 4.7.7.6 1.4 1.1 2.2 1.6l.1.1h.1c1.1-1.9 2.4-3.5 3.8-5z" fill="#bec0c2"/></svg>