<svg viewBox="0 0 79.65 72" xmlns="http://www.w3.org/2000/svg"><path d="m11.08 52.61c-2.78 2.42-5.51 1.24-6.37 0a24.32 24.32 0 0 1 -4.37-18.23 20.08 20.08 0 0 1 6.21-11.51 25.51 25.51 0 0 1 .6-18 2.61 2.61 0 0 1 3.33-1.41l10.3 3.93c4.87-4.85 11.98-7.39 20.71-7.39s15.85 2.54 20.71 7.37l10.3-3.94a2.61 2.61 0 0 1 3.33 1.41 25.73 25.73 0 0 1 .3 18.84 2.6 2.6 0 0 1 .28 1.32 18.37 18.37 0 0 1 -.9 4.58 24.63 24.63 0 0 1 4.14 11.67 2.61 2.61 0 0 1 -1.22 2.38 2.65 2.65 0 0 1 -1.43.37 20.63 20.63 0 0 1 -.86 7.38 2.61 2.61 0 0 1 -4.22 1.23s-1.09-.94-2.54-2a16.63 16.63 0 0 1 -.83 3.39 2.59 2.59 0 0 1 -1.63 1.62 2.52 2.52 0 0 1 -2.22-.31 3.07 3.07 0 0 0 -1.38-.31c-1.2 0-2.25 1.06-3.14 3.14-1 2.32-2.18 4.78-4.08 6.27a4 4 0 0 1 -.62 2.79c-2 3.14-8.7 4.84-14 4.84-5.29 0-12-1.7-14-4.84a4 4 0 0 1 -.62-2.78c-1.91-1.49-3.09-4-4.08-6.27-.87-2.15-1.92-3.15-3.12-3.15a3.11 3.11 0 0 0 -1.36.35 2.61 2.61 0 0 1 -3.87-1.35 16.7 16.7 0 0 1 -.81-3.36c-1.45 1.03-2.52 1.96-2.54 1.97z" fill="#fff"/><path d="m77 41.39c-.2-3.06-1.25-6.83-4.45-11.52a15.94 15.94 0 0 0 1.21-5 12.61 12.61 0 0 1 -1.6 1.22 23.33 23.33 0 0 0 1.24-20.2l-11.91 4.55c-4.34-5.12-11.12-7.82-20-7.82s-15.65 2.71-20 7.82l-11.94-4.57a23.11 23.11 0 0 0 .11 17.86c-7.46 5.2-9.92 17.36-2.82 27.4-.36-2.87.74-5.83 2-8.71a17 17 0 0 0 .51 8.23 31.39 31.39 0 0 1 6.69-4.4 18 18 0 0 0 .82 6.87s5.21-3.36 8.32 4c1.58 3.71 2.91 5.64 5 6l-.62 1.33c-1.13 2.4 5.6 5 11.92 5s13-2.56 11.92-5l-.62-1.33c2.07-.38 3.41-2.3 5-6 3.11-7.32 8.32-4 8.32-4a18 18 0 0 0 .83-6.87 31.37 31.37 0 0 1 6.69 4.4c1.52-5.18.59-8.86-.36-11a24.92 24.92 0 0 1 3.74 1.74z" fill="#231f20"/><path d="m8 34.27s1.71-6.63 3.61-8.53c-4.38 3.33-7.33 10.72-5.82 17.26.64-3.74 4.51-5.74 4.47-11.64a11.12 11.12 0 0 0 -2.26 2.91z" fill="#d31245"/><path d="m63.76 21.43c-1.41-2.07-5.7-3.7-5.7-3.7a13.91 13.91 0 0 1 5.17 1.79 21.86 21.86 0 0 0 -.92-2.42c-6.12-7.36-20.22-7.6-20.22-7.6 7.32-.37 11.83.53 17 2.66-3.44-3.68-8.87-6.26-17.38-6.26-6.21 0-10.78 1.37-14.13 3.55a33.51 33.51 0 0 1 5.27-.85s-6.15 1.66-9 4.13a19.43 19.43 0 0 0 -3.65 6.72c5.11-3.29 13.34-4.58 18.29-4.58 0 0-12.12 1.73-19.06 7.6v.07a55.62 55.62 0 0 1 22.05-4.38 55.39 55.39 0 0 1 22.52 4.59q-.09-.66-.24-1.32z" fill="#d31245"/><path d="m63.35 13.58c.34.56.65 1.14.95 1.74l7.36-5.32z" fill="#babcbe"/><path d="m71.66 10-6.37 7.68q.3.81.54 1.67l3.11-1.52-2.38 4.76c.13.76.23 1.55.31 2.36l.25.32.11.17a16.69 16.69 0 0 0 4.43-15.44z" fill="#fff"/><path d="m19.63 13.58-8.31-3.58 7.36 5.34q.44-.92.95-1.76z" fill="#babcbe"/><path d="m16.1 24.93c.08-.8.18-1.59.31-2.35l-2.41-4.76 3.11 1.52q.25-.86.54-1.67l-6.33-7.67a16.68 16.68 0 0 0 4.42 15.44l.11-.17z" fill="#fff"/><path d="m17.06 27.09a31.45 31.45 0 0 0 -3.2 4.09l19.94-9.28a49.76 49.76 0 0 0 -16.74 5.19z" fill="#babcbe"/><path d="m62.05 39.84a24.09 24.09 0 0 1 8.52 4.34c-.85-4.23-5.36-9.38-5.36-9.38a15.23 15.23 0 0 1 6.49 1.31 29.36 29.36 0 0 0 -5.77-9 51.39 51.39 0 0 0 -20.82-5.59l-3.26 1.42c1 4.42-2.61 9.86-8 12.14s-10.46.61-11.59-3.63l-9.51 4.13a16.12 16.12 0 0 1 5.15-.76s-4.59 5.15-5.44 9.38a24.11 24.11 0 0 1 8.52-4.34s-1.62 4.67-1.33 8.11c0 0 2.67-1 5.69 2.66a13.8 13.8 0 0 1 1.28-7.27c-1.53.09-4.06 2.35-4.06 2.35 2-6.67 7.24-6.56 7.24-6.56a10.33 10.33 0 0 0 -.7 1.85 4.49 4.49 0 0 1 4.08.64s-4.67-.2-4.62 5.48a25.66 25.66 0 0 0 1.2 6.26c1.09 3.39 2.72 6.22 4.37 6.52a23.11 23.11 0 0 0 2.87-.96c-2.89-1.81-4.84-5-4.84-7.37 0-3.44 4.2-4 9.37-4s9.38.6 9.38 4c0 2.35-2 5.56-4.84 7.37a23 23 0 0 0 2.83.95c1.66-.3 3.29-3.13 4.37-6.52a25.61 25.61 0 0 0 1.2-6.26c0-5.68-4.62-5.48-4.62-5.48a4.49 4.49 0 0 1 4.03-.63 10.37 10.37 0 0 0 -.66-1.86s5.29-.11 7.24 6.56c0 0-2.53-2.26-4.06-2.35a13.81 13.81 0 0 1 1.28 7.27c3-3.69 5.69-2.66 5.69-2.66.29-3.43-1.32-8.09-1.33-8.11z" fill="#babcbe"/><g fill="#fff"><path d="m41.49 61.28a26.71 26.71 0 0 0 -6.52.8 4.09 4.09 0 0 0 -.58 1.54c.13.57 2.7 1.92 7.1 1.92s7-1.35 7.1-1.93a4.06 4.06 0 0 0 -.59-1.53 26.7 26.7 0 0 0 -6.51-.8z"/><path d="m26.58 43.33c-1.53.09-4.06 2.35-4.06 2.35 2-6.67 7.24-6.56 7.24-6.56a10.33 10.33 0 0 0 -.66 1.88 4.49 4.49 0 0 1 4.08.64s-4.67-.2-4.62 5.48a25.66 25.66 0 0 0 1.2 6.26c1.09 3.39 2.72 6.22 4.37 6.52a23.11 23.11 0 0 0 2.87-.96c-2.89-1.81-4.84-5-4.84-7.37a3 3 0 0 1 .84-2.24c-.65-3.49-.33-6.71 1.55-7.75a11.65 11.65 0 0 0 -9.13-4.67c-3.46 0-9.76 2-12.94 7.2h.06a24.19 24.19 0 0 1 8.39-4.24s-1.62 4.67-1.33 8.11h.06a4.13 4.13 0 0 1 3.06.47 8.49 8.49 0 0 1 2.57 2.21 13.81 13.81 0 0 1 1.29-7.33z"/><path d="m70.5 44.1c-3.18-5.18-9.5-7.1-12.93-7.2a11.65 11.65 0 0 0 -9.13 4.67c1.87 1 2.2 4.27 1.55 7.75a3 3 0 0 1 .89 2.24c0 2.35-2 5.56-4.84 7.37a23 23 0 0 0 2.83.95c1.66-.3 3.29-3.13 4.37-6.52a25.61 25.61 0 0 0 1.2-6.26c0-5.68-4.62-5.48-4.62-5.48a4.49 4.49 0 0 1 4.06-.62 10.37 10.37 0 0 0 -.66-1.86s5.29-.11 7.24 6.56c0 0-2.53-2.26-4.06-2.35a13.81 13.81 0 0 1 1.28 7.27 8.51 8.51 0 0 1 2.57-2.21 4.14 4.14 0 0 1 3.07-.47h.06c.29-3.44-1.33-8.11-1.33-8.11a24.19 24.19 0 0 1 8.39 4.24z"/><path d="m50.54 22.1c-9.65 1.72-8 10.54-8 10.54s.67-6.61 8.55-8.26a10.75 10.75 0 0 0 -3.12 4c1.68-.58 5.09-2.28 6.85-5 0 0 5.59 2.25 3 9.52 2.33-3.83 1.87-6.83.67-8.92a53.5 53.5 0 0 0 -7.95-1.88z"/></g><path d="m54.84 23.38c-1.76 2.75-5.17 4.45-6.85 5a10.75 10.75 0 0 1 3.12-4c-7.88 1.66-8.55 8.26-8.55 8.26a13.7 13.7 0 0 1 10.2 4 3.67 3.67 0 0 0 -.33-2.81 5.53 5.53 0 0 0 3.11-3.83 3.58 3.58 0 0 0 -.17-2 5.18 5.18 0 0 1 2.45 4.82c2.61-7.19-2.98-9.44-2.98-9.44z" fill="#231f20"/><path d="m52.59 29.35a1 1 0 0 1 .17.58 1.61 1.61 0 0 1 -1.35 1.49 1.1 1.1 0 0 1 -1.28-.65c-.34.13-.68.25-1 .34a2 2 0 0 0 2.45 1.38 3 3 0 0 0 2.52-2.79 1.91 1.91 0 0 0 -.51-1.33 7.49 7.49 0 0 1 -1 .98z" fill="#fbb040"/><path d="m41.49 51.08a24.85 24.85 0 0 1 7.17.89c0-.72-.77-2.32-7.17-2.3s-7.19 1.57-7.17 2.33a24.89 24.89 0 0 1 7.17-.92z" fill="#fff"/><path d="m59.49 65.08h-.68v1.85h-.46v-1.85h-.68v-.4h1.81zm3.07 1.85h-.46v-1.79l-.65 1.79h-.45l-.63-1.79v1.79h-.47v-2.25h.79l.52 1.47.54-1.47h.79z" fill="#231f20"/></svg>