<svg viewBox="0 0 75.346 72" xmlns="http://www.w3.org/2000/svg"><path d="m32.745 18.153-.069 1.744h2.01l1.64-3.45h-1.425c-1.037 0-2.03.166-2.156 1.706m2.254 17.051h8.342l-4.172-2.654zm-22.81 9.914c-.642 2.311-2.546 4.654-4.776 6.119 2.204-1.402 4.123-3.624 4.776-6.119" fill="#b30838"/><path d="m73.693 47.899c-3.548-.783-5.196-3.693-5.575-5.254l-4.339-18.995h-4.292l3.75-2.296-4.806-21.072h-25.058c-2.579 0-4.97.516-7.27 1.57-2.178-1.23-4.898-1.852-8.101-1.852-1.171 0-3.445.152-5.024.429l-4.34 15.168c3.01-.513 4.807-.162 4.807-.162l-.804 3.567c-.354 1.426-1.93 2.679-5.309 3.058l-1.648 6.633c3.896.24 4.253 1.918 3.957 3.41l-2.413 10.543c-.379 1.561-2.028 4.471-5.574 5.254l-1.654 7.017 37.673 17.083 37.673-17.083zm-36.02 21.27-34.987-15.797.826-3.578c3.218-1.384 4.831-3.438 5.618-6.018l2.759-11.822c.591-2.66-.767-4.674-3.46-5.012l.8-3.222c3.196-.591 4.983-1.956 5.593-4.421l.95-4.241c.2-1.038-.448-1.552-1.048-1.784-.7-.271-2.091-.342-3.047-.178l3.093-10.834c5.195-.681 8.919.169 11.318 1.894 2.33-1.256 4.704-1.85 7.322-1.85h23.231l3.991 17.469h-4.997c-1.546-2.561-3.801-3.312-6.503-3.312h-6.805l1.701 3.435h9.508l.843 3.21-4.555 3.097h12.292l4.1 17.572c.788 2.579 2.4 4.634 5.619 6.018l.826 3.578z" fill="#b30838"/><path d="m34.728 56.479.793-14.015-5.253.515-1.381 13.829 2.28-1.645z" fill="#002d62"/><path d="m66.215 43.776-4.101-17.572h-12.29l4.556-3.096-.844-3.209h-9.508l-1.701-3.437h6.805c2.703 0 4.957.751 6.503 3.312h4.997l-3.992-17.469h-23.231c-2.617 0-4.992.595-7.322 1.851-2.399-1.725-6.123-2.574-11.318-1.894l-3.093 10.836c.956-.166 2.346-.095 3.047.177.6.233 1.248.745 1.048 1.783l-.948 4.242c-.612 2.464-2.398 3.828-5.594 4.421l-.8 3.222c2.694.338 4.052 2.352 3.46 5.012l-2.76 11.822c-.787 2.58-2.4 4.633-5.617 6.018l-.825 3.578 34.986 15.797 34.988-15.797-.826-3.578c-3.219-1.386-4.831-3.439-5.62-6.019m-28.539 21.104-.003-.002-.001.002v-.002l-30.26-13.641c2.231-1.465 4.134-3.809 4.776-6.119l3.303-14.062c.482-2.165-.076-4.063-2.558-5.604 2.814-1.084 4.483-2.605 5.124-5.361l1.191-5.391c.601-2.634-1.343-4.053-3.464-4.189l1.543-5.393a18.483 18.483 0 0 1 1.517-.065c3.266 0 5.238 1.026 7.094 2.612 2.296-1.65 4.606-2.547 7.441-2.547h20.513l2.395 10.451c-1.914-2.266-4.268-3.328-6.936-3.328h-15.331c-2.187 0-4.119 1.496-4.296 3.327-.103 1.056-.143 1.301-.239 3.819l-4.068 2.67h10.968l2.933-6.124 2.931 6.124h8.127l-6.908 4.346 2.759 6.957-6.91-4.033-6.91 4.033.058-.146 2.701-6.812-.969 2.444.969-2.444-3.724 2.444h-2.932c-.268 2.079-.406 3.37-.674 6.145a2.44 2.44 0 0 0 .029.603h.001s.831 2.724 4.946 2.724h11.523c2.917 0 5.13-1.499 4.918-3.329l-.681-5.847h10.833l3.751 15.975c1.118 4.031 4.776 6.119 4.776 6.119zm-1.349-48.432-1.64 3.451h-2.011l.07-1.746c.126-1.541 1.118-1.705 2.156-1.705zm7.014 18.756h-8.342l4.171-2.654z" fill="#002d62"/><path d="m63.157 45.118-3.751-15.977-2.087 2.637h-5.787l.339 2.908c.159 1.376-.289 2.734-1.261 3.824-.422.473-2.015 2.365-6.15 2.396l-6.784-.362-.003 21.22-25.786-10.846-4.475.319 30.26 13.641h.003l30.258-13.641s-3.658-2.089-4.776-6.119m-9.748-10.991.596-.613c.051-.073.103-.146.167-.214.679-.698 1.871-.734 2.661-.08.873.604 1.095 1.924.41 2.725l-.731.748c-.742.762-2.042.801-2.904.088-.863-.716-.941-1.891-.199-2.654m-10.785 24.327-2.002-1.975-.792-14.016 5.254.516 1.379 13.828zm8.375-3.463-1.671-1.73-1.422-10.004 4.261.419 1.696 10.013zm6.095-2.623-1.348-1.48-.003-.02-1.336-6.973 3.777.371 1.592 6.936zm-16.403-44.615c.227.564.177 1.236-.229 1.709l-.665.681c-.675.695-1.858.731-2.644.08-.785-.649-.856-1.72-.181-2.413l.054-.057-4.093.002c-2.138 0-4.988 1.29-7.366 3.121-1.394-1.861-4.158-3.215-6.922-2.87 0 0 4.348 1.727 3.17 7.281l-1.391 6.276a7.906 7.906 0 0 1 -.741 1.898 7.987 7.987 0 0 1 -2.241 2.518c1.062 1.34 1.266 2.826.889 4.565l-2.688 11.643 12.22-6.592a2.387 2.387 0 0 1 -.028-.603c.268-2.774.405-4.065.673-6.144h2.934l3.724-2.444-6.907-4.348h-2.843l4.068-2.668c.096-2.518.136-2.764.237-3.819.179-1.83 2.111-3.327 4.297-3.327h15.33c2.668 0 5.023 1.064 6.936 3.327l-2.394-10.45-2.099 2.635h-11.1zm-16.655 28.191-.731.748c-.741.762-2.042.801-2.904.088-.862-.715-.94-1.891-.199-2.653l.595-.613c.052-.073.103-.146.167-.214.681-.698 1.872-.734 2.662-.08.872.603 1.095 1.924.41 2.724" fill="#b0b7bc"/><path d="m26.02 53.261 1.425-10.004-4.263.419-1.694 10.014 1.918-1.398zm-8.817-3.261 2.401.889 1.34-6.993-3.777.369-1.594 6.937z" fill="#002d62"/><path d="m37.673 61.765.002-21.22 6.785.362c4.133-.033 5.727-1.924 6.149-2.396.972-1.09 1.419-2.448 1.262-3.826l-.339-2.908h5.787l2.086-2.633h-10.832l.681 5.847c.212 1.831-2.003 3.329-4.919 3.329h-11.523c-4.114 0-4.947-2.723-4.947-2.723l-12.22 6.59 2.687-11.644c.377-1.737.174-3.224-.888-4.562a7.963 7.963 0 0 0 2.24-2.519s.479-.82.742-1.898l1.391-6.276c1.177-5.554-3.17-7.281-3.17-7.281 2.764-.345 5.528 1.009 6.922 2.87 2.378-1.831 5.228-3.122 7.366-3.122h4.092l.49-.504c-.44.632-.317 1.497.333 2.035l2.24-2.303c.277.193.479.467.602.771l11.101-.001 2.099-2.633h-20.515c-2.835 0-5.143.895-7.44 2.545-1.855-1.586-3.827-2.612-7.093-2.612-.478 0-.981.021-1.517.067l-1.543 5.393c2.122.135 4.065 1.555 3.464 4.188l-1.191 5.391c-.642 2.756-2.31 4.277-5.124 5.361 2.481 1.539 3.04 3.438 2.557 5.604l-3.303 14.062c-.652 2.496-2.573 4.717-4.776 6.119l4.474-.319zm-7.405-18.786 5.253-.517-.793 14.017-3.561-1.316-2.28 1.644zm-7.085.697 4.262-.419-1.426 10.004-2.613-.969-1.918 1.398zm-6.016.591 3.777-.371-1.34 6.992-2.4-.888-1.63 1.202z" fill="#fff"/><path d="m54.405 43.896 1.337 6.972v-.002l.004.023 2.4-.889 1.628 1.202-1.591-6.935zm-14.576-1.433.793 14.016 3.56-1.316 2.28 1.645-1.379-13.829zm8.076.794 1.423 10.004 2.615-.967 1.919 1.394-1.695-10.012z" fill="#002d62"/><path d="m40.622 56.479 2.002 1.975 3.837-1.646-2.278-1.645zm8.706-3.218 1.67 1.73 2.865-1.301-1.919-1.398zm6.418-2.373 1.348 1.48 2.68-1.166-1.628-1.202z" fill="#fff"/><path d="m39.318 25.48-6.91 7.88 6.91-4.033 6.91 4.033-2.76-6.958 6.909-4.346-4.361 1.285h-5.119l1.352-1.285-2.931-6.121z" fill="#b0b7bc"/><path d="m46.016 23.341 4.36-1.283h-8.126l-1.353 1.283zm-13.549 9.874-.058.145 6.908-7.88v-9.546l-2.931 6.124h-8.125l6.906 4.345zm21.906 2.536 2.461-2.531c-.791-.654-1.981-.618-2.662.08a1.846 1.846 0 0 0 -.167.214c-.482.694-.347 1.645.368 2.237m-33.207 0 2.46-2.531c-.79-.654-1.981-.618-2.662.08a1.846 1.846 0 0 0 -.167.214c-.481.694-.346 1.645.369 2.237" fill="#fff"/><path d="m56.512 36.692.731-.748c.687-.801.463-2.121-.409-2.725l-2.461 2.531c-.714-.592-.85-1.543-.367-2.237h-.001l-.596.613c-.742.763-.663 1.938.199 2.653.862.714 2.162.675 2.904-.087m-32.886-3.472-2.46 2.531c-.716-.592-.851-1.543-.369-2.237l-.596.613c-.741.763-.663 1.938.199 2.653.862.713 2.163.674 2.904-.088l.73-.748c.687-.8.465-2.121-.408-2.724m13.528-22.997c.785.65 1.968.614 2.644-.079l.665-.682c.405-.473.457-1.144.229-1.709a1.697 1.697 0 0 0 -.602-.77l-2.24 2.303c-.65-.538-.773-1.404-.334-2.036l-.49.503-.053.055c-.675.694-.604 1.765.181 2.415" fill="#002d62"/><path d="m73.718 59.416h-.013l-.531-1.504h-.814v2.301h.467v-1.831h.012l.645 1.831h.454l.666-1.831h.012v1.831h.467v-2.301h-.806zm-3.638-1.094h.693v1.891h.471v-1.891h.693v-.41h-1.857z" fill="#b0b7bc"/></svg>